<?xml version="1.0" encoding="utf-8"?>
<!-- Generator: Adobe Illustrator 24.1.1, SVG Export Plug-In . SVG Version: 6.00 Build 0)  -->
<svg version="1.1" id="Warstwa_1" xmlns="http://www.w3.org/2000/svg" xmlns:xlink="http://www.w3.org/1999/xlink" x="0px" y="0px"
	 viewBox="0 0 260.1 512" style="enable-background:new 0 0 260.1 512;" xml:space="preserve">
<style type="text/css">
	.st0{display:none;}
	.st1{fill:#888C8F;}
</style>
<g id="Warstwa_2" class="st0">
	
		<image style="display:inline;overflow:visible;" width="29" height="38" xlink:href="2020-04-08 12_49_20-Window.png"  transform="matrix(20.8947 0 0 20.8947 -126.25 -141)">
	</image>
</g>
<path class="st1" d="M179.1,168.4c0.1-8.2-0.2-15.9-0.4-23c-0.6-17.6-1.2-32.7,4.9-39c4.1-4.3,12.9-6.5,26.1-6.5l49.8,1.1V5.8
	l-11-1.3c-1-0.1-2.1-0.3-3.5-0.4c-9.7-1.3-27.6-3.6-56.6-3.6c-42.1,0-74.4,11.5-95.8,34c-34.9,36.9-31.9,92.2-30.1,125.2
	c0.2,2.9,0.3,6,0.4,8.9H0v94.6h62.4L62,511.5h116.2l0.4-248.5l71.6-1.1l9.9-94.6L179.1,168.4z"/>
</svg>
