<svg id="Layer_1" xmlns="http://www.w3.org/2000/svg" viewBox="0 0 122 30.8"><style>.st0{fill:#fff}</style><path class="st0" d="M67.1 21.1v1.3c-.5-.2-1-.4-1.4-.5-.5-.1-.9-.2-1.3-.2-.7 0-1.3.1-1.7.4-.4.3-.6.7-.6 1.2 0 .4.1.8.4 1s.8.4 1.5.5l.8.2c1 .2 1.7.5 2.2 1s.7 1.1.7 1.9c0 1-.3 1.7-1 2.2-.6.5-1.6.7-2.8.7-.5 0-1-.1-1.5-.2s-1.1-.3-1.6-.5v-1.4c.5.3 1.1.5 1.6.7s1 .2 1.5.2c.8 0 1.4-.2 1.8-.5s.6-.7.6-1.3c0-.5-.2-.9-.4-1.1-.3-.3-.8-.5-1.5-.6l-.8-.2c-1-.2-1.7-.5-2.2-.9-.4-.4-.7-1-.7-1.8 0-.9.3-1.6.9-2.1s1.5-.8 2.6-.8c.5 0 .9 0 1.4.1.5.4 1 .6 1.5.7zm2.2-.3h1.3v4.1h4.9v-4.1h1.3v9.9h-1.3V26h-4.9v4.7h-1.3v-9.9zm9.8 0h1.3v9.9h-1.3v-9.9zm3.6 0h3c1.1 0 2 .3 2.5.8.6.5.9 1.2.9 2.2s-.3 1.7-.9 2.2-1.4.8-2.5.8H84v4h-1.3v-10zm1.3 1.1v3.7h1.7c.6 0 1.1-.2 1.4-.5s.5-.8.5-1.4c0-.6-.2-1.1-.5-1.4-.3-.3-.8-.5-1.4-.5 0 .1-1.7.1-1.7.1zm6.4-1.1h3c1.1 0 2 .3 2.5.8.6.5.9 1.2.9 2.2s-.3 1.7-.9 2.2-1.4.8-2.5.8h-1.7v4h-1.3v-10zm1.4 1.1v3.7h1.7c.6 0 1.1-.2 1.4-.5s.5-.8.5-1.4c0-.6-.2-1.1-.5-1.4-.3-.3-.8-.5-1.4-.5 0 .1-1.7.1-1.7.1zm6.4-1.1h6.3v1.1h-4.9v2.9h4.7V26h-4.7v3.6h5v1.1h-6.4v-9.9zm12.7 5.3c.3.1.6.3.8.6.3.3.5.8.8 1.3l1.4 2.7h-1.4l-1.3-2.5c-.3-.7-.6-1.1-1-1.3-.3-.2-.7-.3-1.3-.3h-1.5v4.2h-1.3v-9.9h3c1.1 0 2 .2 2.5.7.5.5.8 1.2.8 2.1 0 .6-.1 1.1-.4 1.6-.1.3-.5.6-1.1.8zm-3.3-4.2v3.5h1.7c.6 0 1.1-.1 1.5-.4.3-.3.5-.7.5-1.3s-.2-1-.5-1.3-.8-.4-1.5-.4c0-.1-1.7-.1-1.7-.1zm13.8-.8v1.3c-.5-.2-1-.4-1.4-.5-.5-.1-.9-.2-1.3-.2-.7 0-1.3.1-1.7.4-.4.3-.6.7-.6 1.2 0 .4.1.8.4 1s.8.4 1.5.5l.8.2c1 .2 1.7.5 2.2 1s.7 1.1.7 1.9c0 1-.3 1.7-1 2.2-.6.5-1.6.7-2.8.7-.5 0-1-.1-1.5-.2s-1.1-.3-1.6-.5v-1.4c.5.3 1.1.5 1.6.7s1 .2 1.5.2c.8 0 1.4-.2 1.8-.5s.6-.7.6-1.3c0-.5-.1-.9-.4-1.1-.3-.3-.8-.5-1.5-.6l-.8-.2c-1-.2-1.7-.5-2.2-.9-.4-.4-.7-1-.7-1.8 0-.9.3-1.6.9-2.1s1.5-.8 2.6-.8c.5 0 .9 0 1.4.1.5.4 1 .6 1.5.7zM38 20.8h4.5v.9H39V24h3.1v.9H39v3.7h-1v-7.8zm8.7-.1c1.1 0 2 .4 2.6 1.1.7.7 1 1.7 1 2.9s-.3 2.2-1 2.9c-.7.7-1.5 1.1-2.6 1.1s-2-.4-2.6-1.1-1-1.7-1-2.9.3-2.2 1-2.9c.6-.8 1.5-1.1 2.6-1.1zm0 .8c-.8 0-1.4.3-1.8.9-.5.6-.7 1.3-.7 2.3s.2 1.8.7 2.3c.5.6 1.1.9 1.8.9s1.4-.3 1.8-.9.7-1.3.7-2.3-.2-1.8-.7-2.3c-.4-.6-1-.9-1.8-.9zm8.5 3.5c.2.1.4.2.7.5.2.3.4.6.6 1l1.1 2.1h-1.1l-1-2c-.3-.5-.5-.9-.8-1s-.6-.3-1-.3h-1.2v3.3h-1.1v-7.8h2.4c.9 0 1.6.2 2 .6s.7.9.7 1.7c0 .5-.1.9-.3 1.2-.3.3-.6.5-1 .7zm-2.7-3.3v2.8h1.3c.5 0 .9-.1 1.2-.4.3-.2.4-.6.4-1s-.1-.8-.4-1-.6-.3-1.2-.3l-1.3-.1zM38 4.9v2.7h4.3V17h3.4V7.6H50V4.9zm47.3 0v6.9l-4.4-6.9h-3.2V17h3.2v-6.8l4.5 6.8h3.1V4.9zM98.9 11c-.6-.6-1.4-1-2.7-1.3l-1.6-.4c-.7-.1-1-.3-1.2-.4s-.3-.3-.3-.6.1-.6.4-.7c.3-.2.8-.3 1.5-.3.5 0 1.1.1 1.7.2s1.2.4 1.8.6l.3.1V5.3h-.1c-.7-.2-1.4-.3-2.1-.4-.7-.1-1.4-.1-2-.1-1.4 0-2.6.3-3.4 1-.8.7-1.2 1.6-1.2 2.8 0 1 .3 1.8.9 2.4s1.4 1 2.7 1.2l1.6.4c.6.1 1 .3 1.2.4s.3.3.3.6-.1.6-.4.7c-.3.2-.8.3-1.5.3-.5 0-1.1-.1-1.7-.2s-1.2-.4-1.8-.6l-.3-.1v2.9h.2c.7.2 1.4.3 2.1.4s1.4.1 2 .1c1.4 0 2.6-.3 3.4-1s1.2-1.6 1.2-2.8c-.1-.9-.4-1.7-1-2.3zm-40.7 4.9V17h3.6v-.2c0-.1.2-3.6-1.2-5.1-.2-.2-.3-.3-.5-.4.8-.4 1.6-1.3 1.6-3 0-2.3-1.6-3.4-4.7-3.4h-5.5V17H55v-4.4h1.3c1.6 0 1.9 2.1 1.9 3.3zM55 10.1V7.5h1.7c1.6 0 1.6.8 1.6 1.3 0 .9-.5 1.3-1.6 1.3H55zM66.8 17l.8-2.1H72l.7 2.1h3.5L71.8 4.9h-3.9L63.4 17h3.4zm3-8.5l1.3 3.8h-2.6l1.3-3.8zm-58-3.6v2.7h4.3V17h3.5V7.6h4.3V4.9z"/><path class="st0" d="M32.1 8.8c0 2.1-1.2 4.1-3.2 5.6v5.3c4.1-2 6.8-5.1 6.8-8.7 0-6.1-8-11-17.8-11-2.1 0-4.1.2-6 .6v.1c1.9-.4 3.9-.7 6-.7 1.4 0 2.8.1 4.1.3 5.8 1.2 10.1 4.5 10.1 8.5zM3.6 13.2c0-2.1 1.2-4.1 3.2-5.6V2.3C2.7 4.3 0 7.4 0 11c0 6.1 8 11 17.8 11 2.1 0 4.1-.2 6-.6v-.1c-1.8.4-3.8.7-6 .7-1.4 0-2.8-.1-4.1-.3-5.8-1.1-10.1-4.5-10.1-8.5z"/></svg>