<svg id="acdf4628-ecfd-43eb-9f27-fdd0d9c89601" data-name="Warstwa 1" xmlns="http://www.w3.org/2000/svg" viewBox="0 0 639.2 598.4"><defs><style>.acc81b27-9d7d-437e-a48d-0311827d4fab{fill:#888c8f;}</style></defs><path class="acc81b27-9d7d-437e-a48d-0311827d4fab" d="M77.5,0C30.6,0,0,30.8,0,71.2c0,39.6,29.7,71.2,75.7,71.2h.9c47.8,0,77.5-31.7,77.5-71.2C153.3,30.8,124.4,0,77.5,0Z"/><path class="acc81b27-9d7d-437e-a48d-0311827d4fab" d="M8.1,186H145.2V598.4H8.1Z"/><path class="acc81b27-9d7d-437e-a48d-0311827d4fab" d="M481.6,176.3c-73.9,0-123.5,69.5-123.5,69.5V186H221V598.4H358V368.1c0-12.3.9-24.6,4.5-33.5,5.3-16.5,32.5-50.1,70.3-50.1,49.6,0,69.4,37.8,69.4,93.2V598.3h137V361.9C639.4,235.3,571.7,176.3,481.6,176.3Z"/></svg>