<svg id="Layer_1" xmlns="http://www.w3.org/2000/svg" viewBox="0 0 127.4 25.8"><style>.st0{fill:#fff}</style><path class="st0" d="M38 4.9v2.7h4.3V17h3.4V7.6H50V4.9zm47.3 0v6.9l-4.4-6.9h-3.2V17h3.2v-6.8l4.5 6.8h3.1V4.9zm16 8.9h3.2V17h-3.2zm13.9-6.2V4.9h-8.3V17h8.3v-2.7h-5.1v-2.2h4.8V9.4h-4.8V7.6zm9-2.7v7.4c0 .9-.1 1.5-.4 1.8-.3.3-.7.5-1.3.5s-1-.2-1.3-.5c-.3-.4-.4-1-.4-1.8V4.9h-3.2v7.4c0 1.6.4 2.8 1.2 3.6.8.8 2.1 1.2 3.7 1.2s2.9-.4 3.7-1.2c.8-.8 1.2-2 1.2-3.6V4.9h-3.2zM98.9 11c-.6-.6-1.4-1-2.7-1.3l-1.6-.4c-.7-.1-1-.3-1.2-.4s-.3-.3-.3-.6.1-.6.4-.7c.3-.2.8-.3 1.5-.3.5 0 1.1.1 1.7.2s1.2.4 1.8.6l.3.1V5.3h-.1c-.7-.2-1.4-.3-2.1-.4-.7-.1-1.4-.1-2-.1-1.4 0-2.6.3-3.4 1-.8.7-1.2 1.6-1.2 2.8 0 1 .3 1.8.9 2.4s1.4 1 2.7 1.2l1.6.4c.6.1 1 .3 1.2.4s.3.3.3.6-.1.6-.4.7c-.3.2-.8.3-1.5.3-.5 0-1.1-.1-1.7-.2s-1.2-.4-1.8-.6l-.3-.1v2.9h.2c.7.2 1.4.3 2.1.4s1.4.1 2 .1c1.4 0 2.6-.3 3.4-1s1.2-1.6 1.2-2.8c-.1-.9-.4-1.7-1-2.3zm-40.7 4.9V17h3.6v-.2c0-.1.2-3.6-1.2-5.1-.2-.2-.3-.3-.5-.4.8-.4 1.6-1.3 1.6-3 0-2.3-1.6-3.4-4.7-3.4h-5.5V17H55v-4.4h1.3c1.6 0 1.9 2.1 1.9 3.3zM55 10.1V7.5h1.7c1.6 0 1.6.8 1.6 1.3 0 .9-.5 1.3-1.6 1.3H55zM66.8 17l.8-2.1H72l.7 2.1h3.5L71.8 4.9h-3.9L63.4 17h3.4zm3-8.5l1.3 3.8h-2.6l1.3-3.8zm-58-3.6v2.7h4.3V17h3.5V7.6h4.3V4.9z"/><path class="st0" d="M32.1 8.8c0 2.1-1.2 4.1-3.2 5.6v5.3c4.1-2 6.8-5.1 6.8-8.7 0-6.1-8-11-17.8-11-2.1 0-4.1.2-6 .6v.1c1.9-.4 3.9-.7 6-.7 1.4 0 2.8.1 4.1.3 5.8 1.2 10.1 4.5 10.1 8.5zM3.6 13.2c0-2.1 1.2-4.1 3.2-5.6V2.3C2.7 4.3 0 7.4 0 11c0 6.1 8 11 17.8 11 2.1 0 4.1-.2 6-.6v-.1c-1.8.4-3.8.7-6 .7-1.4 0-2.8-.1-4.1-.3-5.8-1.1-10.1-4.5-10.1-8.5zm39.7 11.2v1.4h-1V22h1.5c.5 0 .9.1 1.1.2.2.2.3.4.3.8 0 .2-.1.5-.2.6-.1.2-.3.3-.5.4.1 0 .3.1.4.2.1.1.2.3.3.5l.5 1.1h-1l-.5-.9c-.1-.2-.2-.3-.3-.4-.1-.1-.2-.1-.4-.1h-.2zm.4-.7c.2 0 .3 0 .4-.1.1-.1.1-.2.1-.4s0-.3-.1-.4c-.1-.1-.2-.1-.4-.1h-.4v1h.4zM48 22c.6 0 1.1.2 1.4.5s.5.8.5 1.4c0 .6-.2 1.1-.5 1.4-.3.3-.8.5-1.4.5s-1.1-.2-1.4-.5c-.3-.3-.5-.8-.5-1.4 0-.6.2-1.1.5-1.4.4-.4.8-.5 1.4-.5zm0 .7c-.3 0-.5.1-.7.3s-.2.5-.2.9.1.7.2.9c.2.2.4.3.7.3s.5-.1.7-.3.2-.5.2-.9-.1-.7-.2-.9-.4-.3-.7-.3zm4.8 2.4h-1.5l-.2.7h-1l1.4-3.8h1.2l1.4 3.8h-1l-.3-.7zm-1.2-.7h1l-.5-1.5-.5 1.5zm2.9-2.4h1c.6 0 1 0 1.3.1s.5.2.7.4.3.4.4.6c.1.2.1.5.1.8s0 .5-.1.8-.2.4-.4.6c-.2.2-.4.3-.7.4-.3.1-.7.1-1.3.1h-1V22zm1 .8V25h.3c.4 0 .7-.1.9-.3.2-.2.3-.5.3-.9s-.1-.7-.3-.8-.5-.3-.9-.3c.1.1-.3.1-.3.1zm4.7-.8h3.5v.7h-1.2v3h-1v-3h-1.2l-.1-.7zm4.9 2.4v1.4h-1V22h1.5c.5 0 .9.1 1.1.2.2.2.3.4.3.8 0 .2-.1.5-.2.6s-.3.3-.5.4c.1 0 .3.1.4.2.1.1.2.3.3.5l.5 1.1h-1l-.5-1c-.1-.2-.2-.3-.3-.4-.1-.1-.2-.1-.4-.1l-.2.1zm.4-.7c.2 0 .3 0 .4-.1s.1-.2.1-.4 0-.3-.1-.4c-.1-.1-.2-.1-.4-.1h-.4v1h.4zm4.8 1.4h-1.5l-.2.7h-1L69 22h1.2l1.4 3.8h-1l-.3-.7zm-1.2-.7h1l-.5-1.5-.5 1.5zm3-2.4h1.1l1.4 2.6V22h.9v3.8h-1.1L73 23.2v2.6h-.9V22zm6.9.1v.8c-.2-.1-.4-.2-.6-.2s-.4-.1-.6-.1-.4 0-.5.1-.2.2-.2.3 0 .2.1.2c.1.1.2.1.4.1l.4.1c.4.1.7.2.9.4.2.2.3.4.3.7 0 .4-.1.7-.4.9-.2.2-.6.3-1.1.3-.2 0-.5 0-.7-.1-.2 0-.5-.1-.7-.2v-.8c.2.1.5.2.7.3s.4.1.6.1.4 0 .5-.1.2-.2.2-.3 0-.2-.1-.3-.2-.1-.5-.2l-.4-.1c-.4-.1-.6-.2-.8-.4-.2-.2-.3-.4-.3-.7 0-.4.1-.7.4-.9.2-.2.6-.3 1-.3h.6c.3.3.5.4.8.4zm1.1-.1h1.6c.5 0 .8.1 1.1.3.3.2.4.5.4.9s-.1.7-.4.9-.6.3-1.1.3H81v1.3h-1l.1-3.7zm.9.7v1h.5c.2 0 .3 0 .4-.1s.2-.2.2-.4-.1-.3-.2-.4c-.1-.1-.2-.1-.4-.1H81zm4.6-.7c.6 0 1.1.2 1.4.5s.5.8.5 1.4c0 .6-.2 1.1-.5 1.4-.3.3-.8.5-1.4.5s-1.1-.2-1.4-.5-.5-.8-.5-1.4c0-.6.2-1.1.5-1.4.3-.4.8-.5 1.4-.5zm0 .7c-.3 0-.5.1-.7.3s-.2.5-.2.9.1.7.2.9c.2.2.4.3.7.3.3 0 .5-.1.7-.3s.2-.5.2-.9-.1-.7-.2-.9c-.2-.2-.5-.3-.7-.3zm3.6 1.7v1.4h-1V22h1.5c.5 0 .9.1 1.1.2.2.2.3.4.3.8 0 .2-.1.5-.2.6-.1.2-.3.3-.5.4.1 0 .3.1.4.2.1.1.2.3.3.5l.5 1.1h-1l-.5-.9c-.1-.2-.2-.3-.3-.4-.1-.1-.2-.1-.4-.1h-.2zm.4-.7c.2 0 .3 0 .4-.1s.1-.2.1-.4 0-.3-.1-.4c-.1-.1-.2-.1-.4-.1h-.4v1h.4zm1.9-1.7H95v.7h-1.2v3h-1v-3h-1.2c-.1.1-.1-.7-.1-.7zm5.7 0h1.6c.5 0 .8.1 1.1.3.3.2.4.5.4.9s-.1.7-.4.9-.6.3-1.1.3h-.6v1.3h-1V22zm1 .7v1h.5c.2 0 .3 0 .4-.1s.2-.2.2-.4-.1-.3-.2-.4-.2-.1-.4-.1h-.5zm2.8-.7h1v3h1.7v.7H101V22zm5.6 3.1h-1.5l-.2.7h-1l1.4-3.8h1.2l1.4 3.8h-1l-.3-.7zm-1.3-.7h1l-.5-1.5-.5 1.5zm2.1-2.4h3.5v.7h-1.2v3h-1v-3h-1.2c-.1.1-.1-.7-.1-.7zm4 0h2.6v.7h-1.6v.7h1.5v.7h-1.5v1.6h-1V22zm5.2 0c.6 0 1.1.2 1.4.5.3.3.5.8.5 1.4 0 .6-.2 1.1-.5 1.4-.3.3-.8.5-1.4.5-.6 0-1.1-.2-1.4-.5-.3-.3-.5-.8-.5-1.4 0-.6.2-1.1.5-1.4.3-.4.8-.5 1.4-.5zm0 .7c-.3 0-.5.1-.7.3s-.2.5-.2.9.1.7.2.9c.2.2.4.3.7.3s.5-.1.7-.3.2-.5.2-.9-.1-.7-.2-.9c-.2-.2-.4-.3-.7-.3zm3.6 1.7v1.4h-1V22h1.5c.5 0 .9.1 1.1.2.2.2.3.4.3.8 0 .2-.1.5-.2.6-.1.2-.3.3-.5.4.1 0 .3.1.4.2.1.1.2.3.3.5l.5 1.1h-1l-.5-.9c-.1-.2-.2-.3-.3-.4-.1-.1-.2-.1-.4-.1h-.2zm.4-.7c.2 0 .3 0 .4-.1.1-.1.1-.2.1-.4s0-.3-.1-.4c-.1-.1-.2-.1-.4-.1h-.4v1h.4zm2.6-1.7h1.2l.9 2 .9-2h1.2v3.8h-.9V23l-.9 2h-.6l-.9-2v2.7h-.9V22z"/></svg>